<?xml version="1.0" encoding="UTF-8"?>
<svg xmlns="http://www.w3.org/2000/svg" xmlns:xlink="http://www.w3.org/1999/xlink" width="239.637" height="125.004" viewBox="0 0 239.637 125.004">
<defs>
<g>
<g id="glyph-0-0">
<path d="M 1.21875 -2.203125 L 3.84375 -2.203125 L 3.84375 -2.75 L 1.21875 -2.75 L 1.21875 -4.28125 L 3.9375 -4.28125 L 3.9375 -4.828125 L 0.59375 -4.828125 L 0.59375 0 L 4.0625 0 L 4.0625 -0.546875 L 1.21875 -0.546875 Z M 1.21875 -2.203125 "/>
</g>
<g id="glyph-0-1">
<path d="M 1.9375 -1.796875 L 3.09375 -3.46875 L 2.484375 -3.46875 L 1.640625 -2.21875 L 0.8125 -3.46875 L 0.171875 -3.46875 L 1.34375 -1.765625 L 0.109375 0 L 0.734375 0 L 1.625 -1.328125 L 2.484375 0 L 3.140625 0 Z M 1.9375 -1.796875 "/>
</g>
<g id="glyph-0-2">
<path d="M 1 -3.46875 L 0.4375 -3.46875 L 0.4375 0 L 1 0 Z M 1 -4.828125 L 0.4375 -4.828125 L 0.4375 -4.140625 L 1 -4.140625 Z M 1 -4.828125 "/>
</g>
<g id="glyph-0-3">
<path d="M 2.90625 -2.5 C 2.890625 -3.1875 2.4375 -3.578125 1.640625 -3.578125 C 0.828125 -3.578125 0.3125 -3.15625 0.3125 -2.515625 C 0.3125 -1.96875 0.59375 -1.703125 1.40625 -1.515625 L 1.921875 -1.390625 C 2.3125 -1.296875 2.46875 -1.15625 2.46875 -0.90625 C 2.46875 -0.578125 2.140625 -0.359375 1.65625 -0.359375 C 1.359375 -0.359375 1.109375 -0.4375 0.96875 -0.59375 C 0.875 -0.6875 0.84375 -0.78125 0.8125 -1.03125 L 0.21875 -1.03125 C 0.25 -0.234375 0.703125 0.15625 1.609375 0.15625 C 2.484375 0.15625 3.046875 -0.28125 3.046875 -0.953125 C 3.046875 -1.46875 2.75 -1.75 2.0625 -1.921875 L 1.53125 -2.046875 C 1.078125 -2.140625 0.890625 -2.296875 0.890625 -2.53125 C 0.890625 -2.859375 1.171875 -3.0625 1.625 -3.0625 C 2.0625 -3.0625 2.3125 -2.875 2.3125 -2.5 Z M 2.90625 -2.5 "/>
</g>
<g id="glyph-0-4">
<path d="M 1.6875 -3.46875 L 1.109375 -3.46875 L 1.109375 -4.421875 L 0.5625 -4.421875 L 0.5625 -3.46875 L 0.09375 -3.46875 L 0.09375 -3.015625 L 0.5625 -3.015625 L 0.5625 -0.390625 C 0.5625 -0.046875 0.796875 0.15625 1.234375 0.15625 C 1.359375 0.15625 1.5 0.140625 1.6875 0.109375 L 1.6875 -0.359375 C 1.609375 -0.34375 1.53125 -0.328125 1.421875 -0.328125 C 1.171875 -0.328125 1.109375 -0.390625 1.109375 -0.640625 L 1.109375 -3.015625 L 1.6875 -3.015625 Z M 1.6875 -3.46875 "/>
</g>
<g id="glyph-0-5">
<path d="M 0.46875 -3.46875 L 0.46875 0 L 1.015625 0 L 1.015625 -1.921875 C 1.015625 -2.625 1.390625 -3.09375 1.96875 -3.09375 C 2.390625 -3.09375 2.671875 -2.828125 2.671875 -2.40625 L 2.671875 0 L 3.21875 0 L 3.21875 -2.625 C 3.21875 -3.203125 2.796875 -3.578125 2.125 -3.578125 C 1.609375 -3.578125 1.28125 -3.375 0.96875 -2.890625 L 0.96875 -3.46875 Z M 0.46875 -3.46875 "/>
</g>
<g id="glyph-0-6">
<path d="M 2.734375 -3.46875 L 2.734375 -2.96875 C 2.453125 -3.375 2.109375 -3.578125 1.671875 -3.578125 C 0.78125 -3.578125 0.1875 -2.796875 0.1875 -1.671875 C 0.1875 -1.109375 0.34375 -0.640625 0.625 -0.3125 C 0.890625 -0.015625 1.265625 0.15625 1.625 0.15625 C 2.0625 0.15625 2.359375 -0.03125 2.671875 -0.46875 L 2.671875 -0.296875 C 2.671875 0.171875 2.609375 0.46875 2.484375 0.65625 C 2.328125 0.859375 2.046875 0.984375 1.703125 0.984375 C 1.453125 0.984375 1.234375 0.921875 1.078125 0.796875 C 0.953125 0.703125 0.90625 0.609375 0.875 0.390625 L 0.3125 0.390625 C 0.359375 1.046875 0.875 1.4375 1.6875 1.4375 C 2.203125 1.4375 2.65625 1.28125 2.875 1 C 3.140625 0.6875 3.234375 0.25 3.234375 -0.5625 L 3.234375 -3.46875 Z M 1.734375 -3.0625 C 2.328125 -3.0625 2.671875 -2.5625 2.671875 -1.6875 C 2.671875 -0.859375 2.3125 -0.359375 1.734375 -0.359375 C 1.140625 -0.359375 0.765625 -0.875 0.765625 -1.703125 C 0.765625 -2.546875 1.140625 -3.0625 1.734375 -3.0625 Z M 1.734375 -3.0625 "/>
</g>
<g id="glyph-0-7">
<path d="M 3.40625 -1.546875 C 3.40625 -2.078125 3.359375 -2.390625 3.265625 -2.65625 C 3.03125 -3.21875 2.5 -3.578125 1.859375 -3.578125 C 0.890625 -3.578125 0.265625 -2.828125 0.265625 -1.6875 C 0.265625 -0.546875 0.875 0.15625 1.84375 0.15625 C 2.640625 0.15625 3.1875 -0.296875 3.328125 -1.046875 L 2.765625 -1.046875 C 2.609375 -0.59375 2.3125 -0.359375 1.859375 -0.359375 C 1.515625 -0.359375 1.21875 -0.515625 1.03125 -0.8125 C 0.890625 -1 0.84375 -1.203125 0.84375 -1.546875 Z M 0.859375 -2 C 0.90625 -2.640625 1.296875 -3.0625 1.84375 -3.0625 C 2.390625 -3.0625 2.8125 -2.609375 2.8125 -2.046875 C 2.8125 -2.03125 2.8125 -2.015625 2.796875 -2 Z M 0.859375 -2 "/>
</g>
<g id="glyph-0-8">
<path d="M 0.453125 -3.46875 L 0.453125 0 L 1.015625 0 L 1.015625 -1.796875 C 1.015625 -2.296875 1.140625 -2.625 1.40625 -2.8125 C 1.578125 -2.9375 1.75 -2.984375 2.125 -2.984375 L 2.125 -3.546875 C 2.03125 -3.5625 1.984375 -3.578125 1.921875 -3.578125 C 1.5625 -3.578125 1.28125 -3.359375 0.96875 -2.84375 L 0.96875 -3.46875 Z M 0.453125 -3.46875 "/>
</g>
<g id="glyph-0-9">
<path d="M 3.546875 -0.328125 C 3.484375 -0.3125 3.453125 -0.3125 3.421875 -0.3125 C 3.234375 -0.3125 3.125 -0.40625 3.125 -0.578125 L 3.125 -2.625 C 3.125 -3.234375 2.671875 -3.578125 1.828125 -3.578125 C 1.3125 -3.578125 0.90625 -3.421875 0.671875 -3.171875 C 0.515625 -2.984375 0.4375 -2.796875 0.4375 -2.4375 L 0.984375 -2.4375 C 1.03125 -2.875 1.28125 -3.0625 1.796875 -3.0625 C 2.296875 -3.0625 2.578125 -2.875 2.578125 -2.546875 L 2.578125 -2.390625 C 2.578125 -2.171875 2.4375 -2.0625 2 -2.015625 C 1.21875 -1.921875 1.09375 -1.890625 0.890625 -1.796875 C 0.484375 -1.640625 0.28125 -1.328125 0.28125 -0.875 C 0.28125 -0.25 0.71875 0.15625 1.421875 0.15625 C 1.859375 0.15625 2.203125 0 2.59375 -0.359375 C 2.640625 0 2.8125 0.15625 3.171875 0.15625 C 3.28125 0.15625 3.359375 0.140625 3.546875 0.09375 Z M 2.578125 -1.09375 C 2.578125 -0.90625 2.53125 -0.796875 2.359375 -0.640625 C 2.140625 -0.4375 1.859375 -0.328125 1.53125 -0.328125 C 1.109375 -0.328125 0.859375 -0.53125 0.859375 -0.890625 C 0.859375 -1.25 1.09375 -1.4375 1.6875 -1.53125 C 2.265625 -1.609375 2.390625 -1.625 2.578125 -1.71875 Z M 2.578125 -1.09375 "/>
</g>
<g id="glyph-0-10">
<path d="M 1.890625 0 L 3.21875 -3.46875 L 2.59375 -3.46875 L 1.609375 -0.65625 L 0.6875 -3.46875 L 0.0625 -3.46875 L 1.28125 0 Z M 1.890625 0 "/>
</g>
<g id="glyph-0-11">
<path d="M 3.671875 0 L 4.6875 -3.46875 L 4.0625 -3.46875 L 3.375 -0.765625 L 2.703125 -3.46875 L 2.015625 -3.46875 L 1.359375 -0.765625 L 0.65625 -3.46875 L 0.046875 -3.46875 L 1.046875 0 L 1.671875 0 L 2.34375 -2.71875 L 3.046875 0 Z M 3.671875 0 "/>
</g>
<g id="glyph-0-12">
<path d="M 1.796875 -3.578125 C 0.828125 -3.578125 0.234375 -2.875 0.234375 -1.703125 C 0.234375 -0.546875 0.828125 0.15625 1.8125 0.15625 C 2.78125 0.15625 3.375 -0.546875 3.375 -1.6875 C 3.375 -2.875 2.796875 -3.578125 1.796875 -3.578125 Z M 1.8125 -3.0625 C 2.4375 -3.0625 2.796875 -2.546875 2.796875 -1.6875 C 2.796875 -0.875 2.421875 -0.359375 1.8125 -0.359375 C 1.1875 -0.359375 0.8125 -0.875 0.8125 -1.703125 C 0.8125 -2.546875 1.1875 -3.0625 1.8125 -3.0625 Z M 1.8125 -3.0625 "/>
</g>
<g id="glyph-0-13">
<path d="M 1 -4.828125 L 0.453125 -4.828125 L 0.453125 0 L 1 0 Z M 1 -4.828125 "/>
</g>
<g id="glyph-0-14">
<path d="M 3.28125 -4.828125 L 2.734375 -4.828125 L 2.734375 -3.03125 C 2.5 -3.390625 2.125 -3.578125 1.65625 -3.578125 C 0.765625 -3.578125 0.171875 -2.84375 0.171875 -1.75 C 0.171875 -0.5625 0.75 0.15625 1.6875 0.15625 C 2.15625 0.15625 2.484375 -0.03125 2.796875 -0.453125 L 2.796875 0 L 3.28125 0 Z M 1.75 -3.046875 C 2.359375 -3.046875 2.734375 -2.53125 2.734375 -1.703125 C 2.734375 -0.890625 2.34375 -0.359375 1.765625 -0.359375 C 1.15625 -0.359375 0.75 -0.90625 0.75 -1.703125 C 0.75 -2.515625 1.15625 -3.046875 1.75 -3.046875 Z M 1.75 -3.046875 "/>
</g>
<g id="glyph-0-15">
<path d="M 0.46875 -3.46875 L 0.46875 0 L 1.015625 0 L 1.015625 -2.171875 C 1.015625 -2.6875 1.390625 -3.09375 1.828125 -3.09375 C 2.25 -3.09375 2.484375 -2.828125 2.484375 -2.390625 L 2.484375 0 L 3.03125 0 L 3.03125 -2.171875 C 3.03125 -2.6875 3.40625 -3.09375 3.84375 -3.09375 C 4.25 -3.09375 4.484375 -2.828125 4.484375 -2.390625 L 4.484375 0 L 5.046875 0 L 5.046875 -2.609375 C 5.046875 -3.21875 4.6875 -3.578125 4.046875 -3.578125 C 3.578125 -3.578125 3.296875 -3.4375 2.96875 -3.046875 C 2.765625 -3.40625 2.484375 -3.578125 2.046875 -3.578125 C 1.578125 -3.578125 1.265625 -3.40625 0.96875 -2.984375 L 0.96875 -3.46875 Z M 0.46875 -3.46875 "/>
</g>
<g id="glyph-0-16">
<path d="M 0.515625 0 L 2.703125 0 C 3.15625 0 3.5 -0.125 3.75 -0.40625 C 4 -0.65625 4.125 -1 4.125 -1.375 C 4.125 -1.96875 3.859375 -2.3125 3.25 -2.546875 C 3.6875 -2.75 3.921875 -3.109375 3.921875 -3.609375 C 3.921875 -3.953125 3.78125 -4.265625 3.53125 -4.484375 C 3.28125 -4.71875 2.953125 -4.828125 2.484375 -4.828125 L 0.515625 -4.828125 Z M 1.140625 -2.75 L 1.140625 -4.28125 L 2.328125 -4.28125 C 2.671875 -4.28125 2.875 -4.234375 3.03125 -4.109375 C 3.203125 -3.984375 3.296875 -3.78125 3.296875 -3.515625 C 3.296875 -3.265625 3.203125 -3.046875 3.03125 -2.921875 C 2.875 -2.796875 2.671875 -2.75 2.328125 -2.75 Z M 1.140625 -0.546875 L 1.140625 -2.203125 L 2.640625 -2.203125 C 2.9375 -2.203125 3.140625 -2.140625 3.28125 -1.96875 C 3.4375 -1.828125 3.515625 -1.609375 3.515625 -1.375 C 3.515625 -1.140625 3.4375 -0.921875 3.28125 -0.78125 C 3.140625 -0.609375 2.9375 -0.546875 2.640625 -0.546875 Z M 1.140625 -0.546875 "/>
</g>
<g id="glyph-0-17">
<path d="M 3.09375 0 L 4.453125 -4.046875 L 4.453125 0 L 5.046875 0 L 5.046875 -4.828125 L 4.1875 -4.828125 L 2.78125 -0.625 L 1.34375 -4.828125 L 0.5 -4.828125 L 0.5 0 L 1.078125 0 L 1.078125 -4.046875 L 2.453125 0 Z M 3.09375 0 "/>
</g>
<g id="glyph-0-18">
<path d="M 2.578125 -3.46875 L 1.609375 -0.765625 L 0.71875 -3.46875 L 0.125 -3.46875 L 1.3125 0.015625 L 1.09375 0.5625 C 1 0.8125 0.875 0.90625 0.65625 0.90625 C 0.5625 0.90625 0.484375 0.890625 0.359375 0.859375 L 0.359375 1.359375 C 0.46875 1.421875 0.578125 1.4375 0.734375 1.4375 C 0.90625 1.4375 1.09375 1.390625 1.25 1.28125 C 1.421875 1.15625 1.515625 1 1.625 0.734375 L 3.171875 -3.46875 Z M 2.578125 -3.46875 "/>
</g>
<g id="glyph-0-19">
<path d="M 1.703125 -3.46875 L 1.140625 -3.46875 L 1.140625 -4.015625 C 1.140625 -4.25 1.265625 -4.359375 1.515625 -4.359375 C 1.5625 -4.359375 1.578125 -4.359375 1.703125 -4.359375 L 1.703125 -4.8125 C 1.578125 -4.84375 1.515625 -4.84375 1.390625 -4.84375 C 0.890625 -4.84375 0.578125 -4.5625 0.578125 -4.0625 L 0.578125 -3.46875 L 0.125 -3.46875 L 0.125 -3.015625 L 0.578125 -3.015625 L 0.578125 0 L 1.140625 0 L 1.140625 -3.015625 L 1.703125 -3.015625 Z M 1.703125 -3.46875 "/>
</g>
<g id="glyph-0-20">
<path d="M 0.359375 1.4375 L 0.921875 1.4375 L 0.921875 -0.359375 C 1.203125 0 1.53125 0.15625 1.984375 0.15625 C 2.875 0.15625 3.46875 -0.5625 3.46875 -1.671875 C 3.46875 -2.84375 2.890625 -3.578125 1.96875 -3.578125 C 1.5 -3.578125 1.125 -3.359375 0.875 -2.953125 L 0.875 -3.46875 L 0.359375 -3.46875 Z M 1.875 -3.046875 C 2.484375 -3.046875 2.890625 -2.515625 2.890625 -1.6875 C 2.890625 -0.90625 2.484375 -0.359375 1.875 -0.359375 C 1.296875 -0.359375 0.921875 -0.890625 0.921875 -1.703125 C 0.921875 -2.53125 1.296875 -3.046875 1.875 -3.046875 Z M 1.875 -3.046875 "/>
</g>
<g id="glyph-0-21">
<path d="M 0.9375 -4.828125 L 0.390625 -4.828125 L 0.390625 0 L 0.9375 0 L 0.9375 -1.34375 L 1.46875 -1.875 L 2.640625 0 L 3.328125 0 L 1.90625 -2.265625 L 3.109375 -3.46875 L 2.40625 -3.46875 L 0.9375 -2 Z M 0.9375 -4.828125 "/>
</g>
<g id="glyph-0-22">
<path d="M 3.1875 0 L 3.1875 -3.46875 L 2.640625 -3.46875 L 2.640625 -1.5 C 2.640625 -0.796875 2.265625 -0.328125 1.703125 -0.328125 C 1.265625 -0.328125 0.984375 -0.59375 0.984375 -1.015625 L 0.984375 -3.46875 L 0.4375 -3.46875 L 0.4375 -0.796875 C 0.4375 -0.21875 0.859375 0.15625 1.53125 0.15625 C 2.046875 0.15625 2.375 -0.03125 2.703125 -0.484375 L 2.703125 0 Z M 3.1875 0 "/>
</g>
<g id="glyph-1-0">
<path d="M 0.515625 0 L 2.390625 0 C 3.140625 0 3.59375 -0.171875 3.921875 -0.5625 C 4.3125 -1.015625 4.515625 -1.671875 4.515625 -2.421875 C 4.515625 -3.15625 4.3125 -3.8125 3.921875 -4.265625 C 3.59375 -4.65625 3.140625 -4.828125 2.390625 -4.828125 L 0.515625 -4.828125 Z M 1.5 -0.828125 L 1.5 -4 L 2.390625 -4 C 3.140625 -4 3.515625 -3.484375 3.515625 -2.40625 C 3.515625 -1.34375 3.140625 -0.828125 2.390625 -0.828125 Z M 1.5 -0.828125 "/>
</g>
<g id="glyph-1-1">
<path d="M 3.46875 -1.5 C 3.484375 -1.578125 3.484375 -1.609375 3.484375 -1.65625 C 3.484375 -2.015625 3.421875 -2.34375 3.34375 -2.59375 C 3.09375 -3.25 2.53125 -3.640625 1.796875 -3.640625 C 0.78125 -3.640625 0.140625 -2.890625 0.140625 -1.703125 C 0.140625 -0.546875 0.765625 0.15625 1.78125 0.15625 C 2.578125 0.15625 3.234375 -0.3125 3.4375 -1 L 2.53125 -1 C 2.40625 -0.71875 2.15625 -0.5625 1.8125 -0.5625 C 1.546875 -0.5625 1.34375 -0.671875 1.203125 -0.875 C 1.125 -1 1.09375 -1.15625 1.078125 -1.5 Z M 1.09375 -2.109375 C 1.140625 -2.65625 1.375 -2.921875 1.78125 -2.921875 C 2.015625 -2.921875 2.234375 -2.8125 2.359375 -2.625 C 2.453125 -2.5 2.484375 -2.359375 2.515625 -2.109375 Z M 1.09375 -2.109375 "/>
</g>
<g id="glyph-1-2">
<path d="M 1.375 -4.828125 L 0.4375 -4.828125 L 0.4375 0 L 1.375 0 Z M 1.375 -4.828125 "/>
</g>
<g id="glyph-1-3">
<path d="M 2 -3.5 L 1.484375 -3.5 L 1.484375 -4.46875 L 0.546875 -4.46875 L 0.546875 -3.5 L 0.09375 -3.5 L 0.09375 -2.890625 L 0.546875 -2.890625 L 0.546875 -0.6875 C 0.546875 -0.125 0.84375 0.15625 1.453125 0.15625 C 1.65625 0.15625 1.828125 0.125 2 0.078125 L 2 -0.5625 C 1.90625 -0.5625 1.84375 -0.546875 1.78125 -0.546875 C 1.53125 -0.546875 1.484375 -0.625 1.484375 -0.9375 L 1.484375 -2.890625 L 2 -2.890625 Z M 2 -3.5 "/>
</g>
<g id="glyph-1-4">
<path d="M 3.46875 -0.109375 C 3.3125 -0.265625 3.265625 -0.359375 3.265625 -0.546875 L 3.265625 -2.53125 C 3.265625 -3.265625 2.765625 -3.640625 1.796875 -3.640625 C 0.828125 -3.640625 0.328125 -3.21875 0.265625 -2.390625 L 1.15625 -2.390625 C 1.203125 -2.765625 1.359375 -2.890625 1.8125 -2.890625 C 2.171875 -2.890625 2.359375 -2.765625 2.359375 -2.53125 C 2.359375 -2.40625 2.296875 -2.3125 2.1875 -2.25 C 2.0625 -2.1875 2.0625 -2.1875 1.609375 -2.109375 L 1.234375 -2.046875 C 0.53125 -1.921875 0.1875 -1.5625 0.1875 -0.921875 C 0.1875 -0.609375 0.265625 -0.359375 0.4375 -0.1875 C 0.640625 0.03125 0.953125 0.15625 1.265625 0.15625 C 1.671875 0.15625 2.03125 -0.015625 2.359375 -0.359375 C 2.359375 -0.171875 2.375 -0.109375 2.46875 0 L 3.46875 0 Z M 2.359375 -1.4375 C 2.359375 -0.90625 2.09375 -0.59375 1.609375 -0.59375 C 1.3125 -0.59375 1.109375 -0.765625 1.109375 -1.03125 C 1.109375 -1.3125 1.265625 -1.4375 1.640625 -1.515625 L 1.96875 -1.578125 C 2.203125 -1.625 2.25 -1.640625 2.359375 -1.6875 Z M 2.359375 -1.4375 "/>
</g>
<g id="glyph-1-5">
<path d="M 4.84375 0 L 6.171875 -4.828125 L 5.125 -4.828125 L 4.40625 -1.203125 L 3.625 -4.828125 L 2.640625 -4.828125 L 1.890625 -1.21875 L 1.140625 -4.828125 L 0.09375 -4.828125 L 1.453125 0 L 2.34375 0 L 3.140625 -3.765625 L 3.9375 0 Z M 4.84375 0 "/>
</g>
<g id="glyph-1-6">
<path d="M 2 -3.640625 C 0.90625 -3.640625 0.234375 -2.921875 0.234375 -1.75 C 0.234375 -0.5625 0.90625 0.15625 2 0.15625 C 3.09375 0.15625 3.765625 -0.5625 3.765625 -1.71875 C 3.765625 -2.921875 3.109375 -3.640625 2 -3.640625 Z M 2 -2.890625 C 2.515625 -2.890625 2.84375 -2.4375 2.84375 -1.734375 C 2.84375 -1.0625 2.5 -0.59375 2 -0.59375 C 1.5 -0.59375 1.15625 -1.0625 1.15625 -1.75 C 1.15625 -2.421875 1.5 -2.890625 2 -2.890625 Z M 2 -2.890625 "/>
</g>
<g id="glyph-1-7">
<path d="M 0.421875 -3.578125 L 0.421875 0 L 1.34375 0 L 1.34375 -1.90625 C 1.34375 -2.4375 1.609375 -2.71875 2.15625 -2.71875 C 2.265625 -2.71875 2.328125 -2.703125 2.453125 -2.6875 L 2.453125 -3.625 C 2.390625 -3.640625 2.359375 -3.640625 2.34375 -3.640625 C 1.921875 -3.640625 1.546875 -3.359375 1.34375 -2.875 L 1.34375 -3.578125 Z M 0.421875 -3.578125 "/>
</g>
<g id="glyph-1-8">
<path d="M 2.6875 0 L 3.609375 0 L 3.609375 -4.828125 L 2.6875 -4.828125 L 2.6875 -3.109375 C 2.453125 -3.46875 2.140625 -3.640625 1.703125 -3.640625 C 0.84375 -3.640625 0.1875 -2.8125 0.1875 -1.734375 C 0.1875 -1.25 0.34375 -0.765625 0.578125 -0.421875 C 0.828125 -0.078125 1.265625 0.15625 1.703125 0.15625 C 2.140625 0.15625 2.453125 -0.015625 2.6875 -0.359375 Z M 1.90625 -2.859375 C 2.375 -2.859375 2.6875 -2.40625 2.6875 -1.71875 C 2.6875 -1.078125 2.359375 -0.625 1.90625 -0.625 C 1.4375 -0.625 1.125 -1.078125 1.125 -1.734375 C 1.125 -2.390625 1.4375 -2.859375 1.90625 -2.859375 Z M 1.90625 -2.859375 "/>
</g>
<g id="glyph-1-9">
<path d="M 1.34375 -4.828125 C 0.578125 -3.6875 0.265625 -2.765625 0.265625 -1.75 C 0.265625 -0.734375 0.578125 0.171875 1.34375 1.328125 L 2 1.328125 C 1.3125 -0.046875 1.078125 -0.78125 1.078125 -1.75 C 1.078125 -2.71875 1.3125 -3.484375 2 -4.828125 Z M 1.34375 -4.828125 "/>
</g>
<g id="glyph-1-10">
<path d="M 2.578125 -4.90625 C 1.90625 -4.90625 1.34375 -4.6875 0.9375 -4.234375 C 0.515625 -3.78125 0.265625 -3.09375 0.265625 -2.375 C 0.265625 -1.65625 0.515625 -0.96875 0.9375 -0.515625 C 1.359375 -0.0625 1.90625 0.15625 2.59375 0.15625 C 3.28125 0.15625 3.828125 -0.0625 4.234375 -0.515625 C 4.65625 -0.953125 4.921875 -1.65625 4.921875 -2.34375 C 4.921875 -3.09375 4.671875 -3.78125 4.234375 -4.234375 C 3.8125 -4.703125 3.28125 -4.90625 2.578125 -4.90625 Z M 2.59375 -4.0625 C 3.40625 -4.0625 3.921875 -3.40625 3.921875 -2.359375 C 3.921875 -1.359375 3.390625 -0.703125 2.59375 -0.703125 C 1.78125 -0.703125 1.265625 -1.359375 1.265625 -2.375 C 1.265625 -3.390625 1.78125 -4.0625 2.59375 -4.0625 Z M 2.59375 -4.0625 "/>
</g>
<g id="glyph-1-11">
<path d="M 3.578125 0 L 3.578125 -3.578125 L 2.65625 -3.578125 L 2.65625 -1.34375 C 2.65625 -0.921875 2.359375 -0.640625 1.90625 -0.640625 C 1.515625 -0.640625 1.3125 -0.84375 1.3125 -1.28125 L 1.3125 -3.578125 L 0.390625 -3.578125 L 0.390625 -1.09375 C 0.390625 -0.296875 0.828125 0.15625 1.578125 0.15625 C 2.0625 0.15625 2.390625 -0.03125 2.65625 -0.421875 L 2.65625 0 Z M 3.578125 0 "/>
</g>
<g id="glyph-1-12">
<path d="M 3.34375 -2.421875 C 3.328125 -3.1875 2.75 -3.640625 1.78125 -3.640625 C 0.875 -3.640625 0.3125 -3.1875 0.3125 -2.4375 C 0.3125 -2.203125 0.390625 -2 0.515625 -1.859375 C 0.640625 -1.734375 0.75 -1.671875 1.09375 -1.5625 L 2.203125 -1.21875 C 2.4375 -1.140625 2.515625 -1.078125 2.515625 -0.921875 C 2.515625 -0.703125 2.265625 -0.578125 1.828125 -0.578125 C 1.59375 -0.578125 1.390625 -0.625 1.28125 -0.703125 C 1.171875 -0.78125 1.140625 -0.84375 1.09375 -1.046875 L 0.1875 -1.046875 C 0.21875 -0.265625 0.796875 0.15625 1.875 0.15625 C 2.375 0.15625 2.75 0.046875 3.015625 -0.171875 C 3.28125 -0.375 3.4375 -0.703125 3.4375 -1.0625 C 3.4375 -1.53125 3.21875 -1.828125 2.75 -1.96875 L 1.5625 -2.296875 C 1.3125 -2.375 1.25 -2.4375 1.25 -2.578125 C 1.25 -2.78125 1.453125 -2.90625 1.78125 -2.90625 C 2.21875 -2.90625 2.4375 -2.75 2.453125 -2.421875 Z M 3.34375 -2.421875 "/>
</g>
<g id="glyph-1-13">
<path d="M 0.8125 1.328125 C 1.5625 0.171875 1.890625 -0.734375 1.890625 -1.75 C 1.890625 -2.765625 1.5625 -3.6875 0.8125 -4.828125 L 0.140625 -4.828125 C 0.84375 -3.46875 1.078125 -2.71875 1.078125 -1.75 C 1.078125 -0.78125 0.84375 -0.03125 0.140625 1.328125 Z M 0.8125 1.328125 "/>
</g>
<g id="glyph-2-0">
<path d="M 4.671875 -3.40625 C 4.71875 -3.59375 4.734375 -3.6875 4.734375 -3.78125 C 4.734375 -4.0625 4.59375 -4.375 4.375 -4.5625 C 4.09375 -4.796875 3.75 -4.90625 3.234375 -4.90625 C 2.546875 -4.90625 2.015625 -4.71875 1.65625 -4.34375 C 1.390625 -4.0625 1.171875 -3.59375 1.171875 -3.265625 C 1.171875 -2.84375 1.46875 -2.484375 1.921875 -2.359375 L 3.046875 -2.046875 C 3.578125 -1.890625 3.796875 -1.703125 3.796875 -1.390625 C 3.796875 -1.171875 3.671875 -0.921875 3.484375 -0.75 C 3.21875 -0.515625 2.828125 -0.390625 2.296875 -0.390625 C 1.546875 -0.390625 1.203125 -0.65625 1.203125 -1.265625 C 1.203125 -1.34375 1.203125 -1.40625 1.21875 -1.53125 L 0.65625 -1.53125 C 0.609375 -1.359375 0.59375 -1.265625 0.59375 -1.125 C 0.59375 -0.328125 1.1875 0.15625 2.1875 0.15625 C 2.875 0.15625 3.46875 -0.046875 3.859375 -0.40625 C 4.1875 -0.71875 4.4375 -1.203125 4.4375 -1.5625 C 4.4375 -1.75 4.375 -1.921875 4.265625 -2.09375 C 4.125 -2.3125 3.9375 -2.453125 3.625 -2.53125 L 2.484375 -2.859375 C 1.96875 -3 1.8125 -3.140625 1.8125 -3.4375 C 1.8125 -3.65625 1.921875 -3.875 2.109375 -4.046875 C 2.359375 -4.265625 2.671875 -4.375 3.109375 -4.375 C 3.484375 -4.375 3.765625 -4.296875 3.90625 -4.171875 C 4.03125 -4.046875 4.125 -3.84375 4.125 -3.65625 C 4.125 -3.59375 4.109375 -3.546875 4.09375 -3.40625 Z M 4.671875 -3.40625 "/>
</g>
<g id="glyph-2-1">
<path d="M 1.203125 -3.46875 L 0.46875 0 L 1.03125 0 L 1.484375 -2.171875 C 1.59375 -2.6875 2.046875 -3.09375 2.484375 -3.09375 C 2.8125 -3.09375 3.03125 -2.90625 3.03125 -2.640625 C 3.03125 -2.5625 3.03125 -2.484375 3 -2.390625 L 2.5 0 L 3.046875 0 L 3.515625 -2.171875 C 3.625 -2.703125 4.078125 -3.09375 4.5625 -3.09375 C 4.875 -3.09375 5.0625 -2.90625 5.0625 -2.578125 C 5.0625 -2.484375 5.0625 -2.484375 5 -2.265625 L 4.53125 0 L 5.078125 0 L 5.609375 -2.46875 C 5.625 -2.546875 5.640625 -2.765625 5.640625 -2.828125 C 5.640625 -3 5.5625 -3.1875 5.4375 -3.34375 C 5.28125 -3.5 5.109375 -3.578125 4.796875 -3.578125 C 4.375 -3.578125 4 -3.40625 3.609375 -3.015625 C 3.5 -3.390625 3.234375 -3.578125 2.796875 -3.578125 C 2.359375 -3.578125 2.046875 -3.4375 1.625 -3.046875 L 1.703125 -3.46875 Z M 1.203125 -3.46875 "/>
</g>
<g id="glyph-2-2">
<path d="M 3.65625 -0.34375 C 3.59375 -0.328125 3.578125 -0.328125 3.546875 -0.328125 C 3.375 -0.328125 3.296875 -0.390625 3.296875 -0.515625 C 3.296875 -0.546875 3.296875 -0.5625 3.296875 -0.578125 L 3.71875 -2.578125 C 3.765625 -2.75 3.765625 -2.75 3.765625 -2.828125 C 3.765625 -3.265625 3.3125 -3.578125 2.609375 -3.578125 C 1.6875 -3.578125 1.125 -3.1875 1 -2.4375 L 1.5625 -2.4375 C 1.609375 -2.625 1.65625 -2.71875 1.75 -2.8125 C 1.90625 -2.96875 2.171875 -3.0625 2.46875 -3.0625 C 2.859375 -3.0625 3.171875 -2.875 3.171875 -2.640625 C 3.171875 -2.609375 3.15625 -2.5625 3.15625 -2.515625 L 3.140625 -2.390625 C 3.078125 -2.125 2.953125 -2.046875 2.46875 -2 C 1.578125 -1.921875 1.296875 -1.859375 0.96875 -1.65625 C 0.625 -1.4375 0.4375 -1.078125 0.4375 -0.703125 C 0.4375 -0.171875 0.78125 0.15625 1.390625 0.15625 C 1.609375 0.15625 1.890625 0.109375 2.140625 0.015625 C 2.34375 -0.046875 2.4375 -0.125 2.71875 -0.359375 L 2.71875 -0.28125 C 2.71875 -0.015625 2.90625 0.15625 3.21875 0.15625 C 3.296875 0.15625 3.3125 0.15625 3.484375 0.109375 C 3.484375 0.109375 3.53125 0.09375 3.578125 0.09375 Z M 2.859375 -1.09375 C 2.765625 -0.671875 2.1875 -0.328125 1.609375 -0.328125 C 1.21875 -0.328125 1.015625 -0.484375 1.015625 -0.765625 C 1.015625 -0.984375 1.140625 -1.203125 1.34375 -1.3125 C 1.5 -1.421875 1.703125 -1.46875 2.015625 -1.515625 C 2.640625 -1.609375 2.703125 -1.609375 2.984375 -1.703125 Z M 2.859375 -1.09375 "/>
</g>
<g id="glyph-2-3">
<path d="M 2.03125 -4.828125 L 1.484375 -4.828125 L 0.453125 0 L 1 0 Z M 2.03125 -4.828125 "/>
</g>
<g id="glyph-2-4">
<path d="M 3.5625 -4.90625 C 2.8125 -4.90625 2.171875 -4.625 1.625 -4.0625 C 1.046875 -3.453125 0.6875 -2.578125 0.6875 -1.75 C 0.6875 -1.171875 0.875 -0.65625 1.171875 -0.359375 C 1.484375 -0.046875 2.03125 0.15625 2.59375 0.15625 C 3.21875 0.15625 3.78125 -0.03125 4.203125 -0.359375 C 4.984375 -0.953125 5.484375 -2.03125 5.484375 -3.078125 C 5.484375 -3.59375 5.296875 -4.09375 5.015625 -4.40625 C 4.6875 -4.71875 4.15625 -4.90625 3.5625 -4.90625 Z M 3.484375 -4.375 C 3.921875 -4.375 4.359375 -4.1875 4.578125 -3.890625 C 4.75 -3.65625 4.84375 -3.34375 4.84375 -2.953125 C 4.84375 -2.359375 4.640625 -1.703125 4.28125 -1.21875 C 3.90625 -0.6875 3.3125 -0.390625 2.671875 -0.390625 C 2.25 -0.390625 1.828125 -0.5625 1.59375 -0.859375 C 1.421875 -1.09375 1.328125 -1.40625 1.328125 -1.796875 C 1.328125 -2.40625 1.53125 -3.046875 1.875 -3.53125 C 2.265625 -4.0625 2.859375 -4.375 3.484375 -4.375 Z M 3.484375 -4.375 "/>
</g>
<g id="glyph-2-5">
<path d="M 1.203125 -3.46875 L 0.46875 0 L 1.015625 0 L 1.421875 -1.921875 C 1.578125 -2.640625 2.046875 -3.09375 2.640625 -3.09375 C 2.96875 -3.09375 3.21875 -2.859375 3.21875 -2.5625 C 3.21875 -2.515625 3.203125 -2.421875 3.1875 -2.3125 L 2.6875 0 L 3.25 0 L 3.78125 -2.484375 C 3.796875 -2.578125 3.796875 -2.65625 3.796875 -2.75 C 3.796875 -3.25 3.453125 -3.578125 2.90625 -3.578125 C 2.390625 -3.578125 1.96875 -3.390625 1.609375 -3.046875 L 1.703125 -3.46875 Z M 1.203125 -3.46875 "/>
</g>
<g id="glyph-2-6">
<path d="M 3.734375 -1.546875 L 3.75 -1.65625 C 3.8125 -1.984375 3.84375 -2.265625 3.84375 -2.4375 C 3.84375 -3.078125 3.296875 -3.578125 2.578125 -3.578125 C 2 -3.578125 1.4375 -3.296875 1.109375 -2.859375 C 0.796875 -2.4375 0.5625 -1.6875 0.5625 -1.140625 C 0.5625 -0.78125 0.703125 -0.421875 0.96875 -0.171875 C 1.203125 0.046875 1.484375 0.15625 1.875 0.15625 C 2.65625 0.15625 3.34375 -0.34375 3.546875 -1.046875 L 3 -1.046875 C 2.75 -0.59375 2.40625 -0.359375 1.96875 -0.359375 C 1.4375 -0.359375 1.140625 -0.6875 1.140625 -1.25 C 1.140625 -1.390625 1.140625 -1.453125 1.171875 -1.546875 Z M 1.296875 -2.03125 C 1.46875 -2.640625 1.953125 -3.0625 2.484375 -3.0625 C 2.96875 -3.0625 3.265625 -2.75 3.265625 -2.25 C 3.265625 -2.171875 3.25 -2.140625 3.234375 -2.03125 Z M 1.296875 -2.03125 "/>
</g>
</g>
<clipPath id="clip-0">
<path clip-rule="nonzero" d="M 28 0 L 239.636719 0 L 239.636719 48 L 28 48 Z M 28 0 "/>
</clipPath>
</defs>
<path fill-rule="nonzero" fill="rgb(98.039246%, 84.313965%, 67.449951%)" fill-opacity="1" stroke-width="0.3985" stroke-linecap="butt" stroke-linejoin="miter" stroke="rgb(70.588684%, 39.608765%, 1.568604%)" stroke-opacity="1" stroke-miterlimit="10" d="M 38.068063 22.676531 L -27.12725 22.676531 C -29.478812 22.676531 -31.381156 20.774187 -31.381156 18.426531 L -31.381156 -18.425031 C -31.381156 -20.772688 -29.478812 -22.678938 -27.12725 -22.678938 L 38.068063 -22.678938 C 40.415719 -22.678938 42.321969 -20.772688 42.321969 -18.425031 L 42.321969 18.426531 C 42.321969 20.774187 40.415719 22.676531 38.068063 22.676531 Z M 38.068063 22.676531 " transform="matrix(1, 0, 0, -1, 33.971, 36.407)"/>
<g fill="rgb(0%, 0%, 0%)" fill-opacity="1">
<use xlink:href="#glyph-0-0" x="27.844" y="30.759"/>
<use xlink:href="#glyph-0-1" x="32.262942" y="30.759"/>
<use xlink:href="#glyph-0-2" x="35.575492" y="30.759"/>
<use xlink:href="#glyph-0-3" x="37.046264" y="30.759"/>
<use xlink:href="#glyph-0-4" x="40.358814" y="30.759"/>
<use xlink:href="#glyph-0-2" x="42.200592" y="30.759"/>
<use xlink:href="#glyph-0-5" x="43.671364" y="30.759"/>
<use xlink:href="#glyph-0-6" x="47.354919" y="30.759"/>
</g>
<g fill="rgb(0%, 0%, 0%)" fill-opacity="1">
<use xlink:href="#glyph-0-6" x="24.091" y="38.729"/>
<use xlink:href="#glyph-0-7" x="27.774556" y="38.729"/>
<use xlink:href="#glyph-0-5" x="31.458111" y="38.729"/>
<use xlink:href="#glyph-0-7" x="35.141667" y="38.729"/>
<use xlink:href="#glyph-0-8" x="38.825222" y="38.729"/>
</g>
<g fill="rgb(0%, 0%, 0%)" fill-opacity="1">
<use xlink:href="#glyph-0-9" x="40.96513" y="38.729"/>
<use xlink:href="#glyph-0-4" x="44.648685" y="38.729"/>
<use xlink:href="#glyph-0-2" x="46.490463" y="38.729"/>
<use xlink:href="#glyph-0-10" x="47.961235" y="38.729"/>
</g>
<g fill="rgb(0%, 0%, 0%)" fill-opacity="1">
<use xlink:href="#glyph-0-7" x="51.108158" y="38.729"/>
</g>
<g fill="rgb(0%, 0%, 0%)" fill-opacity="1">
<use xlink:href="#glyph-0-11" x="19.913" y="46.699"/>
</g>
<g fill="rgb(0%, 0%, 0%)" fill-opacity="1">
<use xlink:href="#glyph-0-12" x="24.630071" y="46.699"/>
<use xlink:href="#glyph-0-8" x="28.313627" y="46.699"/>
</g>
<g fill="rgb(0%, 0%, 0%)" fill-opacity="1">
<use xlink:href="#glyph-0-13" x="30.619162" y="46.699"/>
<use xlink:href="#glyph-0-14" x="32.089934" y="46.699"/>
</g>
<g fill="rgb(0%, 0%, 0%)" fill-opacity="1">
<use xlink:href="#glyph-0-15" x="37.615267" y="46.699"/>
<use xlink:href="#glyph-0-12" x="43.133975" y="46.699"/>
<use xlink:href="#glyph-0-14" x="46.817531" y="46.699"/>
<use xlink:href="#glyph-0-7" x="50.501087" y="46.699"/>
<use xlink:href="#glyph-0-13" x="54.184642" y="46.699"/>
<use xlink:href="#glyph-0-3" x="55.655414" y="46.699"/>
</g>
<g fill="rgb(0%, 0%, 0%)" fill-opacity="1">
<use xlink:href="#glyph-0-16" x="24.713" y="67.357"/>
<use xlink:href="#glyph-0-2" x="29.131942" y="67.357"/>
<use xlink:href="#glyph-0-6" x="30.602714" y="67.357"/>
</g>
<g fill="rgb(0%, 0%, 0%)" fill-opacity="1">
<use xlink:href="#glyph-0-15" x="36.128047" y="67.357"/>
<use xlink:href="#glyph-0-12" x="41.646756" y="67.357"/>
<use xlink:href="#glyph-0-14" x="45.330311" y="67.357"/>
<use xlink:href="#glyph-0-7" x="49.013867" y="67.357"/>
<use xlink:href="#glyph-0-13" x="52.697422" y="67.357"/>
</g>
<path fill-rule="nonzero" fill="rgb(100%, 100%, 100%)" fill-opacity="1" stroke-width="0.3985" stroke-linecap="butt" stroke-linejoin="miter" stroke="rgb(43.920898%, 47.059631%, 50.193787%)" stroke-opacity="1" stroke-miterlimit="10" d="M 115.37275 15.590594 L 88.724312 15.590594 C 87.474312 15.590594 86.458687 14.574969 86.458687 13.324969 L 86.458687 -13.323469 C 86.458687 -14.577375 87.474312 -15.589094 88.724312 -15.589094 L 115.37275 -15.589094 C 116.62275 -15.589094 117.638375 -14.577375 117.638375 -13.323469 L 117.638375 13.324969 C 117.638375 14.574969 116.62275 15.590594 115.37275 15.590594 Z M 115.37275 15.590594 " transform="matrix(1, 0, 0, -1, 33.971, 36.407)"/>
<path fill-rule="nonzero" fill="rgb(78.431702%, 79.998779%, 81.568909%)" fill-opacity="1" stroke-width="0.3985" stroke-linecap="butt" stroke-linejoin="miter" stroke="rgb(39.216614%, 40.000916%, 40.783691%)" stroke-opacity="1" stroke-miterlimit="10" d="M 95.099312 -5.952375 L 90.857125 -5.952375 C 90.306344 -5.952375 89.861031 -6.397688 89.861031 -6.948469 L 89.861031 -11.194563 C 89.861031 -11.741438 90.306344 -12.190656 90.857125 -12.190656 L 95.099312 -12.190656 C 95.650094 -12.190656 96.095406 -11.741438 96.095406 -11.194563 L 96.095406 -6.948469 C 96.095406 -6.397688 95.650094 -5.952375 95.099312 -5.952375 Z M 95.099312 -5.952375 " transform="matrix(1, 0, 0, -1, 33.971, 36.407)"/>
<path fill-rule="nonzero" fill="rgb(78.431702%, 79.998779%, 81.568909%)" fill-opacity="1" stroke-width="0.3985" stroke-linecap="butt" stroke-linejoin="miter" stroke="rgb(39.216614%, 40.000916%, 40.783691%)" stroke-opacity="1" stroke-miterlimit="10" d="M 95.099312 3.117937 L 90.857125 3.117937 C 90.306344 3.117937 89.861031 2.672625 89.861031 2.121844 L 89.861031 -2.120344 C 89.861031 -2.671125 90.306344 -3.116438 90.857125 -3.116438 L 95.099312 -3.116438 C 95.650094 -3.116438 96.095406 -2.671125 96.095406 -2.120344 L 96.095406 2.121844 C 96.095406 2.672625 95.650094 3.117937 95.099312 3.117937 Z M 95.099312 3.117937 " transform="matrix(1, 0, 0, -1, 33.971, 36.407)"/>
<path fill-rule="nonzero" fill="rgb(78.431702%, 79.998779%, 81.568909%)" fill-opacity="1" stroke-width="0.3985" stroke-linecap="butt" stroke-linejoin="miter" stroke="rgb(39.216614%, 40.000916%, 40.783691%)" stroke-opacity="1" stroke-miterlimit="10" d="M 95.099312 12.18825 L 90.857125 12.18825 C 90.306344 12.18825 89.861031 11.742937 89.861031 11.192156 L 89.861031 6.949969 C 89.861031 6.399187 90.306344 5.953875 90.857125 5.953875 L 95.099312 5.953875 C 95.650094 5.953875 96.095406 6.399187 96.095406 6.949969 L 96.095406 11.192156 C 96.095406 11.742937 95.650094 12.18825 95.099312 12.18825 Z M 95.099312 12.18825 " transform="matrix(1, 0, 0, -1, 33.971, 36.407)"/>
<path fill-rule="nonzero" fill="rgb(78.431702%, 79.998779%, 81.568909%)" fill-opacity="1" stroke-width="0.3985" stroke-linecap="butt" stroke-linejoin="miter" stroke="rgb(39.216614%, 40.000916%, 40.783691%)" stroke-opacity="1" stroke-miterlimit="10" d="M 104.169625 -5.952375 L 99.927437 -5.952375 C 99.376656 -5.952375 98.931344 -6.397688 98.931344 -6.948469 L 98.931344 -11.194563 C 98.931344 -11.741438 99.376656 -12.190656 99.927437 -12.190656 L 104.169625 -12.190656 C 104.720406 -12.190656 105.165719 -11.741438 105.165719 -11.194563 L 105.165719 -6.948469 C 105.165719 -6.397688 104.720406 -5.952375 104.169625 -5.952375 Z M 104.169625 -5.952375 " transform="matrix(1, 0, 0, -1, 33.971, 36.407)"/>
<path fill-rule="nonzero" fill="rgb(78.431702%, 79.998779%, 81.568909%)" fill-opacity="1" stroke-width="0.3985" stroke-linecap="butt" stroke-linejoin="miter" stroke="rgb(39.216614%, 40.000916%, 40.783691%)" stroke-opacity="1" stroke-miterlimit="10" d="M 104.169625 3.117937 L 99.927437 3.117937 C 99.376656 3.117937 98.931344 2.672625 98.931344 2.121844 L 98.931344 -2.120344 C 98.931344 -2.671125 99.376656 -3.116438 99.927437 -3.116438 L 104.169625 -3.116438 C 104.720406 -3.116438 105.165719 -2.671125 105.165719 -2.120344 L 105.165719 2.121844 C 105.165719 2.672625 104.720406 3.117937 104.169625 3.117937 Z M 104.169625 3.117937 " transform="matrix(1, 0, 0, -1, 33.971, 36.407)"/>
<path fill-rule="nonzero" fill="rgb(78.431702%, 79.998779%, 81.568909%)" fill-opacity="1" stroke-width="0.3985" stroke-linecap="butt" stroke-linejoin="miter" stroke="rgb(39.216614%, 40.000916%, 40.783691%)" stroke-opacity="1" stroke-miterlimit="10" d="M 104.169625 12.18825 L 99.927437 12.18825 C 99.376656 12.18825 98.931344 11.742937 98.931344 11.192156 L 98.931344 6.949969 C 98.931344 6.399187 99.376656 5.953875 99.927437 5.953875 L 104.169625 5.953875 C 104.720406 5.953875 105.165719 6.399187 105.165719 6.949969 L 105.165719 11.192156 C 105.165719 11.742937 104.720406 12.18825 104.169625 12.18825 Z M 104.169625 12.18825 " transform="matrix(1, 0, 0, -1, 33.971, 36.407)"/>
<path fill-rule="nonzero" fill="rgb(78.431702%, 79.998779%, 81.568909%)" fill-opacity="1" stroke-width="0.3985" stroke-linecap="butt" stroke-linejoin="miter" stroke="rgb(39.216614%, 40.000916%, 40.783691%)" stroke-opacity="1" stroke-miterlimit="10" d="M 113.239937 -5.952375 L 108.99775 -5.952375 C 108.446969 -5.952375 108.001656 -6.397688 108.001656 -6.948469 L 108.001656 -11.194563 C 108.001656 -11.741438 108.446969 -12.190656 108.99775 -12.190656 L 113.239937 -12.190656 C 113.790719 -12.190656 114.239937 -11.741438 114.239937 -11.194563 L 114.239937 -6.948469 C 114.239937 -6.397688 113.790719 -5.952375 113.239937 -5.952375 Z M 113.239937 -5.952375 " transform="matrix(1, 0, 0, -1, 33.971, 36.407)"/>
<path fill-rule="nonzero" fill="rgb(78.431702%, 79.998779%, 81.568909%)" fill-opacity="1" stroke-width="0.3985" stroke-linecap="butt" stroke-linejoin="miter" stroke="rgb(39.216614%, 40.000916%, 40.783691%)" stroke-opacity="1" stroke-miterlimit="10" d="M 113.239937 3.117937 L 108.99775 3.117937 C 108.446969 3.117937 108.001656 2.672625 108.001656 2.121844 L 108.001656 -2.120344 C 108.001656 -2.671125 108.446969 -3.116438 108.99775 -3.116438 L 113.239937 -3.116438 C 113.790719 -3.116438 114.239937 -2.671125 114.239937 -2.120344 L 114.239937 2.121844 C 114.239937 2.672625 113.790719 3.117937 113.239937 3.117937 Z M 113.239937 3.117937 " transform="matrix(1, 0, 0, -1, 33.971, 36.407)"/>
<path fill-rule="nonzero" fill="rgb(78.431702%, 79.998779%, 81.568909%)" fill-opacity="1" stroke-width="0.3985" stroke-linecap="butt" stroke-linejoin="miter" stroke="rgb(39.216614%, 40.000916%, 40.783691%)" stroke-opacity="1" stroke-miterlimit="10" d="M 113.239937 12.18825 L 108.99775 12.18825 C 108.446969 12.18825 108.001656 11.742937 108.001656 11.192156 L 108.001656 6.949969 C 108.001656 6.399187 108.446969 5.953875 108.99775 5.953875 L 113.239937 5.953875 C 113.790719 5.953875 114.239937 6.399187 114.239937 6.949969 L 114.239937 11.192156 C 114.239937 11.742937 113.790719 12.18825 113.239937 12.18825 Z M 113.239937 12.18825 " transform="matrix(1, 0, 0, -1, 33.971, 36.407)"/>
<path fill-rule="nonzero" fill="rgb(100%, 100%, 100%)" fill-opacity="1" stroke-width="0.3985" stroke-linecap="butt" stroke-linejoin="miter" stroke="rgb(43.920898%, 47.059631%, 50.193787%)" stroke-opacity="1" stroke-miterlimit="10" d="M 152.224312 15.590594 L 125.575875 15.590594 C 124.325875 15.590594 123.31025 14.574969 123.31025 13.324969 L 123.31025 -13.323469 C 123.31025 -14.577375 124.325875 -15.589094 125.575875 -15.589094 L 152.224312 -15.589094 C 153.474312 -15.589094 154.489937 -14.577375 154.489937 -13.323469 L 154.489937 13.324969 C 154.489937 14.574969 153.474312 15.590594 152.224312 15.590594 Z M 152.224312 15.590594 " transform="matrix(1, 0, 0, -1, 33.971, 36.407)"/>
<path fill-rule="nonzero" fill="rgb(78.431702%, 79.998779%, 81.568909%)" fill-opacity="1" stroke-width="0.3985" stroke-linecap="butt" stroke-linejoin="miter" stroke="rgb(39.216614%, 40.000916%, 40.783691%)" stroke-opacity="1" stroke-miterlimit="10" d="M 131.950875 -5.952375 L 127.704781 -5.952375 C 127.157906 -5.952375 126.708687 -6.397688 126.708687 -6.948469 L 126.708687 -11.194563 C 126.708687 -11.741438 127.157906 -12.190656 127.704781 -12.190656 L 131.950875 -12.190656 C 132.501656 -12.190656 132.946969 -11.741438 132.946969 -11.194563 L 132.946969 -6.948469 C 132.946969 -6.397688 132.501656 -5.952375 131.950875 -5.952375 Z M 131.950875 -5.952375 " transform="matrix(1, 0, 0, -1, 33.971, 36.407)"/>
<path fill-rule="nonzero" fill="rgb(78.431702%, 79.998779%, 81.568909%)" fill-opacity="1" stroke-width="0.3985" stroke-linecap="butt" stroke-linejoin="miter" stroke="rgb(39.216614%, 40.000916%, 40.783691%)" stroke-opacity="1" stroke-miterlimit="10" d="M 131.950875 3.117937 L 127.704781 3.117937 C 127.157906 3.117937 126.708687 2.672625 126.708687 2.121844 L 126.708687 -2.120344 C 126.708687 -2.671125 127.157906 -3.116438 127.704781 -3.116438 L 131.950875 -3.116438 C 132.501656 -3.116438 132.946969 -2.671125 132.946969 -2.120344 L 132.946969 2.121844 C 132.946969 2.672625 132.501656 3.117937 131.950875 3.117937 Z M 131.950875 3.117937 " transform="matrix(1, 0, 0, -1, 33.971, 36.407)"/>
<path fill-rule="nonzero" fill="rgb(78.431702%, 79.998779%, 81.568909%)" fill-opacity="1" stroke-width="0.3985" stroke-linecap="butt" stroke-linejoin="miter" stroke="rgb(39.216614%, 40.000916%, 40.783691%)" stroke-opacity="1" stroke-miterlimit="10" d="M 131.950875 12.18825 L 127.704781 12.18825 C 127.157906 12.18825 126.708687 11.742937 126.708687 11.192156 L 126.708687 6.949969 C 126.708687 6.399187 127.157906 5.953875 127.704781 5.953875 L 131.950875 5.953875 C 132.501656 5.953875 132.946969 6.399187 132.946969 6.949969 L 132.946969 11.192156 C 132.946969 11.742937 132.501656 12.18825 131.950875 12.18825 Z M 131.950875 12.18825 " transform="matrix(1, 0, 0, -1, 33.971, 36.407)"/>
<path fill-rule="nonzero" fill="rgb(78.431702%, 79.998779%, 81.568909%)" fill-opacity="1" stroke-width="0.3985" stroke-linecap="butt" stroke-linejoin="miter" stroke="rgb(39.216614%, 40.000916%, 40.783691%)" stroke-opacity="1" stroke-miterlimit="10" d="M 141.021187 -5.952375 L 136.779 -5.952375 C 136.228219 -5.952375 135.782906 -6.397688 135.782906 -6.948469 L 135.782906 -11.194563 C 135.782906 -11.741438 136.228219 -12.190656 136.779 -12.190656 L 141.021187 -12.190656 C 141.571969 -12.190656 142.017281 -11.741438 142.017281 -11.194563 L 142.017281 -6.948469 C 142.017281 -6.397688 141.571969 -5.952375 141.021187 -5.952375 Z M 141.021187 -5.952375 " transform="matrix(1, 0, 0, -1, 33.971, 36.407)"/>
<path fill-rule="nonzero" fill="rgb(78.431702%, 79.998779%, 81.568909%)" fill-opacity="1" stroke-width="0.3985" stroke-linecap="butt" stroke-linejoin="miter" stroke="rgb(39.216614%, 40.000916%, 40.783691%)" stroke-opacity="1" stroke-miterlimit="10" d="M 141.021187 3.117937 L 136.779 3.117937 C 136.228219 3.117937 135.782906 2.672625 135.782906 2.121844 L 135.782906 -2.120344 C 135.782906 -2.671125 136.228219 -3.116438 136.779 -3.116438 L 141.021187 -3.116438 C 141.571969 -3.116438 142.017281 -2.671125 142.017281 -2.120344 L 142.017281 2.121844 C 142.017281 2.672625 141.571969 3.117937 141.021187 3.117937 Z M 141.021187 3.117937 " transform="matrix(1, 0, 0, -1, 33.971, 36.407)"/>
<path fill-rule="nonzero" fill="rgb(78.431702%, 79.998779%, 81.568909%)" fill-opacity="1" stroke-width="0.3985" stroke-linecap="butt" stroke-linejoin="miter" stroke="rgb(39.216614%, 40.000916%, 40.783691%)" stroke-opacity="1" stroke-miterlimit="10" d="M 141.021187 12.18825 L 136.779 12.18825 C 136.228219 12.18825 135.782906 11.742937 135.782906 11.192156 L 135.782906 6.949969 C 135.782906 6.399187 136.228219 5.953875 136.779 5.953875 L 141.021187 5.953875 C 141.571969 5.953875 142.017281 6.399187 142.017281 6.949969 L 142.017281 11.192156 C 142.017281 11.742937 141.571969 12.18825 141.021187 12.18825 Z M 141.021187 12.18825 " transform="matrix(1, 0, 0, -1, 33.971, 36.407)"/>
<path fill-rule="nonzero" fill="rgb(78.431702%, 79.998779%, 81.568909%)" fill-opacity="1" stroke-width="0.3985" stroke-linecap="butt" stroke-linejoin="miter" stroke="rgb(39.216614%, 40.000916%, 40.783691%)" stroke-opacity="1" stroke-miterlimit="10" d="M 150.0915 -5.952375 L 145.849312 -5.952375 C 145.298531 -5.952375 144.853219 -6.397688 144.853219 -6.948469 L 144.853219 -11.194563 C 144.853219 -11.741438 145.298531 -12.190656 145.849312 -12.190656 L 150.0915 -12.190656 C 150.642281 -12.190656 151.087594 -11.741438 151.087594 -11.194563 L 151.087594 -6.948469 C 151.087594 -6.397688 150.642281 -5.952375 150.0915 -5.952375 Z M 150.0915 -5.952375 " transform="matrix(1, 0, 0, -1, 33.971, 36.407)"/>
<path fill-rule="nonzero" fill="rgb(78.431702%, 79.998779%, 81.568909%)" fill-opacity="1" stroke-width="0.3985" stroke-linecap="butt" stroke-linejoin="miter" stroke="rgb(39.216614%, 40.000916%, 40.783691%)" stroke-opacity="1" stroke-miterlimit="10" d="M 150.0915 3.117937 L 145.849312 3.117937 C 145.298531 3.117937 144.853219 2.672625 144.853219 2.121844 L 144.853219 -2.120344 C 144.853219 -2.671125 145.298531 -3.116438 145.849312 -3.116438 L 150.0915 -3.116438 C 150.642281 -3.116438 151.087594 -2.671125 151.087594 -2.120344 L 151.087594 2.121844 C 151.087594 2.672625 150.642281 3.117937 150.0915 3.117937 Z M 150.0915 3.117937 " transform="matrix(1, 0, 0, -1, 33.971, 36.407)"/>
<path fill-rule="nonzero" fill="rgb(78.431702%, 79.998779%, 81.568909%)" fill-opacity="1" stroke-width="0.3985" stroke-linecap="butt" stroke-linejoin="miter" stroke="rgb(39.216614%, 40.000916%, 40.783691%)" stroke-opacity="1" stroke-miterlimit="10" d="M 150.0915 12.18825 L 145.849312 12.18825 C 145.298531 12.18825 144.853219 11.742937 144.853219 11.192156 L 144.853219 6.949969 C 144.853219 6.399187 145.298531 5.953875 145.849312 5.953875 L 150.0915 5.953875 C 150.642281 5.953875 151.087594 6.399187 151.087594 6.949969 L 151.087594 11.192156 C 151.087594 11.742937 150.642281 12.18825 150.0915 12.18825 Z M 150.0915 12.18825 " transform="matrix(1, 0, 0, -1, 33.971, 36.407)"/>
<path fill-rule="nonzero" fill="rgb(100%, 100%, 100%)" fill-opacity="1" stroke-width="0.3985" stroke-linecap="butt" stroke-linejoin="miter" stroke="rgb(43.920898%, 47.059631%, 50.193787%)" stroke-opacity="1" stroke-miterlimit="10" d="M 189.071969 15.590594 L 162.427437 15.590594 C 161.173531 15.590594 160.157906 14.574969 160.157906 13.324969 L 160.157906 -13.323469 C 160.157906 -14.577375 161.173531 -15.589094 162.427437 -15.589094 L 189.071969 -15.589094 C 190.325875 -15.589094 191.3415 -14.577375 191.3415 -13.323469 L 191.3415 13.324969 C 191.3415 14.574969 190.325875 15.590594 189.071969 15.590594 Z M 189.071969 15.590594 " transform="matrix(1, 0, 0, -1, 33.971, 36.407)"/>
<path fill-rule="nonzero" fill="rgb(78.431702%, 79.998779%, 81.568909%)" fill-opacity="1" stroke-width="0.3985" stroke-linecap="butt" stroke-linejoin="miter" stroke="rgb(39.216614%, 40.000916%, 40.783691%)" stroke-opacity="1" stroke-miterlimit="10" d="M 168.802437 -5.952375 L 164.556344 -5.952375 C 164.005562 -5.952375 163.56025 -6.397688 163.56025 -6.948469 L 163.56025 -11.194563 C 163.56025 -11.741438 164.005562 -12.190656 164.556344 -12.190656 L 168.802437 -12.190656 C 169.353219 -12.190656 169.798531 -11.741438 169.798531 -11.194563 L 169.798531 -6.948469 C 169.798531 -6.397688 169.353219 -5.952375 168.802437 -5.952375 Z M 168.802437 -5.952375 " transform="matrix(1, 0, 0, -1, 33.971, 36.407)"/>
<path fill-rule="nonzero" fill="rgb(78.431702%, 79.998779%, 81.568909%)" fill-opacity="1" stroke-width="0.3985" stroke-linecap="butt" stroke-linejoin="miter" stroke="rgb(39.216614%, 40.000916%, 40.783691%)" stroke-opacity="1" stroke-miterlimit="10" d="M 168.802437 3.117937 L 164.556344 3.117937 C 164.005562 3.117937 163.56025 2.672625 163.56025 2.121844 L 163.56025 -2.120344 C 163.56025 -2.671125 164.005562 -3.116438 164.556344 -3.116438 L 168.802437 -3.116438 C 169.353219 -3.116438 169.798531 -2.671125 169.798531 -2.120344 L 169.798531 2.121844 C 169.798531 2.672625 169.353219 3.117937 168.802437 3.117937 Z M 168.802437 3.117937 " transform="matrix(1, 0, 0, -1, 33.971, 36.407)"/>
<path fill-rule="nonzero" fill="rgb(78.431702%, 79.998779%, 81.568909%)" fill-opacity="1" stroke-width="0.3985" stroke-linecap="butt" stroke-linejoin="miter" stroke="rgb(39.216614%, 40.000916%, 40.783691%)" stroke-opacity="1" stroke-miterlimit="10" d="M 168.802437 12.18825 L 164.556344 12.18825 C 164.005562 12.18825 163.56025 11.742937 163.56025 11.192156 L 163.56025 6.949969 C 163.56025 6.399187 164.005562 5.953875 164.556344 5.953875 L 168.802437 5.953875 C 169.353219 5.953875 169.798531 6.399187 169.798531 6.949969 L 169.798531 11.192156 C 169.798531 11.742937 169.353219 12.18825 168.802437 12.18825 Z M 168.802437 12.18825 " transform="matrix(1, 0, 0, -1, 33.971, 36.407)"/>
<path fill-rule="nonzero" fill="rgb(78.431702%, 79.998779%, 81.568909%)" fill-opacity="1" stroke-width="0.3985" stroke-linecap="butt" stroke-linejoin="miter" stroke="rgb(39.216614%, 40.000916%, 40.783691%)" stroke-opacity="1" stroke-miterlimit="10" d="M 177.87275 -5.952375 L 173.630562 -5.952375 C 173.079781 -5.952375 172.630562 -6.397688 172.630562 -6.948469 L 172.630562 -11.194563 C 172.630562 -11.741438 173.079781 -12.190656 173.630562 -12.190656 L 177.87275 -12.190656 C 178.423531 -12.190656 178.868844 -11.741438 178.868844 -11.194563 L 178.868844 -6.948469 C 178.868844 -6.397688 178.423531 -5.952375 177.87275 -5.952375 Z M 177.87275 -5.952375 " transform="matrix(1, 0, 0, -1, 33.971, 36.407)"/>
<path fill-rule="nonzero" fill="rgb(78.431702%, 79.998779%, 81.568909%)" fill-opacity="1" stroke-width="0.3985" stroke-linecap="butt" stroke-linejoin="miter" stroke="rgb(39.216614%, 40.000916%, 40.783691%)" stroke-opacity="1" stroke-miterlimit="10" d="M 177.87275 3.117937 L 173.630562 3.117937 C 173.079781 3.117937 172.630562 2.672625 172.630562 2.121844 L 172.630562 -2.120344 C 172.630562 -2.671125 173.079781 -3.116438 173.630562 -3.116438 L 177.87275 -3.116438 C 178.423531 -3.116438 178.868844 -2.671125 178.868844 -2.120344 L 178.868844 2.121844 C 178.868844 2.672625 178.423531 3.117937 177.87275 3.117937 Z M 177.87275 3.117937 " transform="matrix(1, 0, 0, -1, 33.971, 36.407)"/>
<path fill-rule="nonzero" fill="rgb(78.431702%, 79.998779%, 81.568909%)" fill-opacity="1" stroke-width="0.3985" stroke-linecap="butt" stroke-linejoin="miter" stroke="rgb(39.216614%, 40.000916%, 40.783691%)" stroke-opacity="1" stroke-miterlimit="10" d="M 177.87275 12.18825 L 173.630562 12.18825 C 173.079781 12.18825 172.630562 11.742937 172.630562 11.192156 L 172.630562 6.949969 C 172.630562 6.399187 173.079781 5.953875 173.630562 5.953875 L 177.87275 5.953875 C 178.423531 5.953875 178.868844 6.399187 178.868844 6.949969 L 178.868844 11.192156 C 178.868844 11.742937 178.423531 12.18825 177.87275 12.18825 Z M 177.87275 12.18825 " transform="matrix(1, 0, 0, -1, 33.971, 36.407)"/>
<path fill-rule="nonzero" fill="rgb(78.431702%, 79.998779%, 81.568909%)" fill-opacity="1" stroke-width="0.3985" stroke-linecap="butt" stroke-linejoin="miter" stroke="rgb(39.216614%, 40.000916%, 40.783691%)" stroke-opacity="1" stroke-miterlimit="10" d="M 186.943062 -5.952375 L 182.700875 -5.952375 C 182.150094 -5.952375 181.704781 -6.397688 181.704781 -6.948469 L 181.704781 -11.194563 C 181.704781 -11.741438 182.150094 -12.190656 182.700875 -12.190656 L 186.943062 -12.190656 C 187.493844 -12.190656 187.939156 -11.741438 187.939156 -11.194563 L 187.939156 -6.948469 C 187.939156 -6.397688 187.493844 -5.952375 186.943062 -5.952375 Z M 186.943062 -5.952375 " transform="matrix(1, 0, 0, -1, 33.971, 36.407)"/>
<path fill-rule="nonzero" fill="rgb(78.431702%, 79.998779%, 81.568909%)" fill-opacity="1" stroke-width="0.3985" stroke-linecap="butt" stroke-linejoin="miter" stroke="rgb(39.216614%, 40.000916%, 40.783691%)" stroke-opacity="1" stroke-miterlimit="10" d="M 186.943062 3.117937 L 182.700875 3.117937 C 182.150094 3.117937 181.704781 2.672625 181.704781 2.121844 L 181.704781 -2.120344 C 181.704781 -2.671125 182.150094 -3.116438 182.700875 -3.116438 L 186.943062 -3.116438 C 187.493844 -3.116438 187.939156 -2.671125 187.939156 -2.120344 L 187.939156 2.121844 C 187.939156 2.672625 187.493844 3.117937 186.943062 3.117937 Z M 186.943062 3.117937 " transform="matrix(1, 0, 0, -1, 33.971, 36.407)"/>
<path fill-rule="nonzero" fill="rgb(78.431702%, 79.998779%, 81.568909%)" fill-opacity="1" stroke-width="0.3985" stroke-linecap="butt" stroke-linejoin="miter" stroke="rgb(39.216614%, 40.000916%, 40.783691%)" stroke-opacity="1" stroke-miterlimit="10" d="M 186.943062 12.18825 L 182.700875 12.18825 C 182.150094 12.18825 181.704781 11.742937 181.704781 11.192156 L 181.704781 6.949969 C 181.704781 6.399187 182.150094 5.953875 182.700875 5.953875 L 186.943062 5.953875 C 187.493844 5.953875 187.939156 6.399187 187.939156 6.949969 L 187.939156 11.192156 C 187.939156 11.742937 187.493844 12.18825 186.943062 12.18825 Z M 186.943062 12.18825 " transform="matrix(1, 0, 0, -1, 33.971, 36.407)"/>
<path fill="none" stroke-width="0.79701" stroke-linecap="butt" stroke-linejoin="miter" stroke="rgb(43.920898%, 47.059631%, 50.193787%)" stroke-opacity="1" stroke-miterlimit="10" d="M 42.521188 0.00075 L 82.450875 0.00075 " transform="matrix(1, 0, 0, -1, 33.971, 36.407)"/>
<path fill-rule="nonzero" fill="rgb(43.920898%, 47.059631%, 50.193787%)" fill-opacity="1" d="M 119.011719 36.40625 L 114.867188 34.335938 L 116.421875 36.40625 L 114.867188 38.480469 "/>
<g fill="rgb(0%, 0%, 0%)" fill-opacity="1">
<use xlink:href="#glyph-0-17" x="89.701" y="31.46"/>
<use xlink:href="#glyph-0-9" x="95.219708" y="31.46"/>
<use xlink:href="#glyph-0-5" x="98.903264" y="31.46"/>
</g>
<g fill="rgb(0%, 0%, 0%)" fill-opacity="1">
<use xlink:href="#glyph-0-18" x="102.487443" y="31.46"/>
</g>
<g fill="rgb(0%, 0%, 0%)" fill-opacity="1">
<use xlink:href="#glyph-0-19" x="85.199" y="44.833"/>
</g>
<g fill="rgb(0%, 0%, 0%)" fill-opacity="1">
<use xlink:href="#glyph-0-12" x="86.842025" y="44.833"/>
<use xlink:href="#glyph-0-8" x="90.52558" y="44.833"/>
<use xlink:href="#glyph-0-11" x="92.731739" y="44.833"/>
</g>
<g fill="rgb(0%, 0%, 0%)" fill-opacity="1">
<use xlink:href="#glyph-0-9" x="97.415684" y="44.833"/>
<use xlink:href="#glyph-0-8" x="101.09924" y="44.833"/>
<use xlink:href="#glyph-0-14" x="103.305398" y="44.833"/>
<use xlink:href="#glyph-0-3" x="106.988954" y="44.833"/>
</g>
<g clip-path="url(#clip-0)">
<path fill="none" stroke-width="0.79701" stroke-linecap="butt" stroke-linejoin="miter" stroke="rgb(43.920898%, 47.059631%, 50.193787%)" stroke-opacity="1" stroke-miterlimit="10" d="M 191.540719 0.00075 L 199.892281 0.00075 C 201.540719 0.00075 202.880562 1.336687 202.880562 2.989031 L 202.880562 31.028094 C 202.880562 32.676531 201.540719 34.016375 199.892281 34.016375 L 8.458688 34.016375 C 6.806344 34.016375 5.470406 32.676531 5.470406 31.028094 L 5.470406 25.465594 " transform="matrix(1, 0, 0, -1, 33.971, 36.407)"/>
</g>
<path fill-rule="nonzero" fill="rgb(43.920898%, 47.059631%, 50.193787%)" fill-opacity="1" d="M 39.441406 13.53125 L 41.511719 9.386719 L 39.441406 10.941406 L 37.367188 9.386719 "/>
<g fill="rgb(0%, 0%, 0%)" fill-opacity="1">
<use xlink:href="#glyph-0-17" x="128.613" y="67.51"/>
<use xlink:href="#glyph-0-9" x="134.131708" y="67.51"/>
<use xlink:href="#glyph-0-5" x="137.815264" y="67.51"/>
</g>
<g fill="rgb(0%, 0%, 0%)" fill-opacity="1">
<use xlink:href="#glyph-0-18" x="141.399443" y="67.51"/>
</g>
<g fill="rgb(0%, 0%, 0%)" fill-opacity="1">
<use xlink:href="#glyph-0-3" x="146.553771" y="67.51"/>
<use xlink:href="#glyph-0-20" x="149.866321" y="67.51"/>
<use xlink:href="#glyph-0-9" x="153.549876" y="67.51"/>
<use xlink:href="#glyph-0-4" x="157.233432" y="67.51"/>
<use xlink:href="#glyph-0-2" x="159.07521" y="67.51"/>
<use xlink:href="#glyph-0-9" x="160.545982" y="67.51"/>
<use xlink:href="#glyph-0-13" x="164.229538" y="67.51"/>
</g>
<g fill="rgb(0%, 0%, 0%)" fill-opacity="1">
<use xlink:href="#glyph-0-4" x="167.542088" y="67.51"/>
<use xlink:href="#glyph-0-12" x="169.383865" y="67.51"/>
<use xlink:href="#glyph-0-21" x="173.067421" y="67.51"/>
</g>
<g fill="rgb(0%, 0%, 0%)" fill-opacity="1">
<use xlink:href="#glyph-0-7" x="176.247469" y="67.51"/>
<use xlink:href="#glyph-0-5" x="179.931025" y="67.51"/>
<use xlink:href="#glyph-0-3" x="183.61458" y="67.51"/>
</g>
<g fill="rgb(0%, 0%, 0%)" fill-opacity="1">
<use xlink:href="#glyph-0-20" x="188.768908" y="67.51"/>
<use xlink:href="#glyph-0-7" x="192.452464" y="67.51"/>
<use xlink:href="#glyph-0-8" x="196.136019" y="67.51"/>
</g>
<g fill="rgb(0%, 0%, 0%)" fill-opacity="1">
<use xlink:href="#glyph-0-19" x="200.183955" y="67.51"/>
<use xlink:href="#glyph-0-22" x="202.025733" y="67.51"/>
<use xlink:href="#glyph-0-4" x="205.709289" y="67.51"/>
<use xlink:href="#glyph-0-22" x="207.551066" y="67.51"/>
<use xlink:href="#glyph-0-8" x="211.234622" y="67.51"/>
<use xlink:href="#glyph-0-7" x="213.44078" y="67.51"/>
</g>
<path fill-rule="nonzero" fill="rgb(100%, 94.900513%, 79.998779%)" fill-opacity="1" stroke-width="0.3985" stroke-linecap="butt" stroke-linejoin="miter" stroke="rgb(83.921814%, 71.372986%, 33.724976%)" stroke-opacity="1" stroke-miterlimit="10" d="M 26.732125 -51.093 L -15.791312 -51.093 C -18.138969 -51.093 -20.041312 -52.99925 -20.041312 -55.346906 L -20.041312 -69.378156 C -20.041312 -71.725813 -18.138969 -73.632063 -15.791312 -73.632063 L 26.732125 -73.632063 C 29.079781 -73.632063 30.982125 -71.725813 30.982125 -69.378156 L 30.982125 -55.346906 C 30.982125 -52.99925 29.079781 -51.093 26.732125 -51.093 Z M 26.732125 -51.093 " transform="matrix(1, 0, 0, -1, 33.971, 36.407)"/>
<g fill="rgb(0%, 0%, 0%)" fill-opacity="1">
<use xlink:href="#glyph-1-0" x="22.156" y="96.444"/>
<use xlink:href="#glyph-1-1" x="26.939322" y="96.444"/>
<use xlink:href="#glyph-1-2" x="30.622878" y="96.444"/>
<use xlink:href="#glyph-1-3" x="32.464656" y="96.444"/>
<use xlink:href="#glyph-1-4" x="34.670814" y="96.444"/>
<use xlink:href="#glyph-1-5" x="38.354369" y="96.444"/>
</g>
<g fill="rgb(0%, 0%, 0%)" fill-opacity="1">
<use xlink:href="#glyph-1-6" x="44.210958" y="96.444"/>
<use xlink:href="#glyph-1-7" x="48.258894" y="96.444"/>
<use xlink:href="#glyph-1-2" x="50.836058" y="96.444"/>
<use xlink:href="#glyph-1-8" x="52.677836" y="96.444"/>
</g>
<g fill="rgb(0%, 0%, 0%)" fill-opacity="1">
<use xlink:href="#glyph-1-9" x="29.553" y="104.414"/>
<use xlink:href="#glyph-1-10" x="31.759158" y="104.414"/>
<use xlink:href="#glyph-1-11" x="36.913486" y="104.414"/>
<use xlink:href="#glyph-1-7" x="40.961422" y="104.414"/>
</g>
<g fill="rgb(0%, 0%, 0%)" fill-opacity="1">
<use xlink:href="#glyph-1-12" x="43.43921" y="104.414"/>
<use xlink:href="#glyph-1-13" x="47.122765" y="104.414"/>
</g>
<g fill="rgb(0%, 0%, 0%)" fill-opacity="1">
<use xlink:href="#glyph-2-0" x="20.935" y="118.463"/>
<use xlink:href="#glyph-2-1" x="25.353942" y="118.463"/>
<use xlink:href="#glyph-2-2" x="30.87265" y="118.463"/>
<use xlink:href="#glyph-2-3" x="34.556206" y="118.463"/>
<use xlink:href="#glyph-2-3" x="36.026978" y="118.463"/>
</g>
<g fill="rgb(0%, 0%, 0%)" fill-opacity="1">
<use xlink:href="#glyph-0-15" x="39.906" y="118.463"/>
<use xlink:href="#glyph-0-12" x="45.424708" y="118.463"/>
<use xlink:href="#glyph-0-14" x="49.108264" y="118.463"/>
<use xlink:href="#glyph-0-7" x="52.791819" y="118.463"/>
<use xlink:href="#glyph-0-13" x="56.475375" y="118.463"/>
</g>
<path fill-rule="nonzero" fill="rgb(100%, 100%, 100%)" fill-opacity="1" stroke-width="0.3985" stroke-linecap="butt" stroke-linejoin="miter" stroke="rgb(43.920898%, 47.059631%, 50.193787%)" stroke-opacity="1" stroke-miterlimit="10" d="M 106.868844 -55.276594 L 97.228219 -55.276594 C 95.978219 -55.276594 94.962594 -56.292219 94.962594 -57.542219 L 94.962594 -67.182844 C 94.962594 -68.432844 95.978219 -69.448469 97.228219 -69.448469 L 106.868844 -69.448469 C 108.118844 -69.448469 109.134469 -68.432844 109.134469 -67.182844 L 109.134469 -57.542219 C 109.134469 -56.292219 108.118844 -55.276594 106.868844 -55.276594 Z M 106.868844 -55.276594 " transform="matrix(1, 0, 0, -1, 33.971, 36.407)"/>
<path fill-rule="nonzero" fill="rgb(36.077881%, 72.155762%, 36.077881%)" fill-opacity="1" stroke-width="0.3985" stroke-linecap="butt" stroke-linejoin="miter" stroke="rgb(18.03894%, 36.077881%, 18.03894%)" stroke-opacity="1" stroke-miterlimit="10" d="M 104.169625 -59.245344 L 99.927437 -59.245344 C 99.376656 -59.245344 98.931344 -59.690656 98.931344 -60.241438 L 98.931344 -64.483625 C 98.931344 -65.034406 99.376656 -65.479719 99.927437 -65.479719 L 104.169625 -65.479719 C 104.720406 -65.479719 105.165719 -65.034406 105.165719 -64.483625 L 105.165719 -60.241438 C 105.165719 -59.690656 104.720406 -59.245344 104.169625 -59.245344 Z M 104.169625 -59.245344 " transform="matrix(1, 0, 0, -1, 33.971, 36.407)"/>
<path fill-rule="nonzero" fill="rgb(100%, 100%, 100%)" fill-opacity="1" stroke-width="0.3985" stroke-linecap="butt" stroke-linejoin="miter" stroke="rgb(43.920898%, 47.059631%, 50.193787%)" stroke-opacity="1" stroke-miterlimit="10" d="M 143.7165 -55.276594 L 134.079781 -55.276594 C 132.825875 -55.276594 131.814156 -56.292219 131.814156 -57.542219 L 131.814156 -67.182844 C 131.814156 -68.432844 132.825875 -69.448469 134.079781 -69.448469 L 143.7165 -69.448469 C 144.970406 -69.448469 145.986031 -68.432844 145.986031 -67.182844 L 145.986031 -57.542219 C 145.986031 -56.292219 144.970406 -55.276594 143.7165 -55.276594 Z M 143.7165 -55.276594 " transform="matrix(1, 0, 0, -1, 33.971, 36.407)"/>
<path fill-rule="nonzero" fill="rgb(36.077881%, 72.155762%, 36.077881%)" fill-opacity="1" stroke-width="0.3985" stroke-linecap="butt" stroke-linejoin="miter" stroke="rgb(18.03894%, 36.077881%, 18.03894%)" stroke-opacity="1" stroke-miterlimit="10" d="M 141.021187 -59.245344 L 136.779 -59.245344 C 136.228219 -59.245344 135.782906 -59.690656 135.782906 -60.241438 L 135.782906 -64.483625 C 135.782906 -65.034406 136.228219 -65.479719 136.779 -65.479719 L 141.021187 -65.479719 C 141.571969 -65.479719 142.017281 -65.034406 142.017281 -64.483625 L 142.017281 -60.241438 C 142.017281 -59.690656 141.571969 -59.245344 141.021187 -59.245344 Z M 141.021187 -59.245344 " transform="matrix(1, 0, 0, -1, 33.971, 36.407)"/>
<path fill-rule="nonzero" fill="rgb(100%, 100%, 100%)" fill-opacity="1" stroke-width="0.3985" stroke-linecap="butt" stroke-linejoin="miter" stroke="rgb(43.920898%, 47.059631%, 50.193787%)" stroke-opacity="1" stroke-miterlimit="10" d="M 180.568062 -55.276594 L 170.931344 -55.276594 C 169.677437 -55.276594 168.661812 -56.292219 168.661812 -57.542219 L 168.661812 -67.182844 C 168.661812 -68.432844 169.677437 -69.448469 170.931344 -69.448469 L 180.568062 -69.448469 C 181.821969 -69.448469 182.837594 -68.432844 182.837594 -67.182844 L 182.837594 -57.542219 C 182.837594 -56.292219 181.821969 -55.276594 180.568062 -55.276594 Z M 180.568062 -55.276594 " transform="matrix(1, 0, 0, -1, 33.971, 36.407)"/>
<path fill-rule="nonzero" fill="rgb(36.077881%, 72.155762%, 36.077881%)" fill-opacity="1" stroke-width="0.3985" stroke-linecap="butt" stroke-linejoin="miter" stroke="rgb(18.03894%, 36.077881%, 18.03894%)" stroke-opacity="1" stroke-miterlimit="10" d="M 177.87275 -59.245344 L 173.626656 -59.245344 C 173.079781 -59.245344 172.630562 -59.690656 172.630562 -60.241438 L 172.630562 -64.483625 C 172.630562 -65.034406 173.079781 -65.479719 173.626656 -65.479719 L 177.87275 -65.479719 C 178.423531 -65.479719 178.868844 -65.034406 178.868844 -64.483625 L 178.868844 -60.241438 C 178.868844 -59.690656 178.423531 -59.245344 177.87275 -59.245344 Z M 177.87275 -59.245344 " transform="matrix(1, 0, 0, -1, 33.971, 36.407)"/>
<path fill="none" stroke-width="0.79701" stroke-linecap="butt" stroke-linejoin="miter" stroke="rgb(43.920898%, 47.059631%, 50.193787%)" stroke-opacity="1" stroke-miterlimit="10" d="M 31.181344 -62.362531 L 92.37275 -62.362531 " transform="matrix(1, 0, 0, -1, 33.971, 36.407)"/>
<path fill-rule="nonzero" fill="rgb(43.920898%, 47.059631%, 50.193787%)" fill-opacity="1" d="M 128.933594 98.769531 L 124.789062 96.699219 L 126.34375 98.769531 L 124.789062 100.84375 "/>
<g fill="rgb(0%, 0%, 0%)" fill-opacity="1">
<use xlink:href="#glyph-2-4" x="90.71" y="95.08"/>
<use xlink:href="#glyph-2-5" x="95.864328" y="95.08"/>
<use xlink:href="#glyph-2-6" x="99.547883" y="95.08"/>
</g>
<g fill="rgb(0%, 0%, 0%)" fill-opacity="1">
<use xlink:href="#glyph-0-19" x="86.147" y="107.195"/>
</g>
<g fill="rgb(0%, 0%, 0%)" fill-opacity="1">
<use xlink:href="#glyph-0-12" x="87.790025" y="107.195"/>
<use xlink:href="#glyph-0-8" x="91.47358" y="107.195"/>
<use xlink:href="#glyph-0-11" x="93.679739" y="107.195"/>
</g>
<g fill="rgb(0%, 0%, 0%)" fill-opacity="1">
<use xlink:href="#glyph-0-9" x="98.363684" y="107.195"/>
<use xlink:href="#glyph-0-8" x="102.04724" y="107.195"/>
<use xlink:href="#glyph-0-14" x="104.253398" y="107.195"/>
</g>
<g fill="rgb(0%, 0%, 0%)" fill-opacity="1">
<use xlink:href="#glyph-2-4" x="134.379" y="118.463"/>
<use xlink:href="#glyph-2-5" x="139.533328" y="118.463"/>
<use xlink:href="#glyph-2-6" x="143.216883" y="118.463"/>
</g>
<g fill="rgb(0%, 0%, 0%)" fill-opacity="1">
<use xlink:href="#glyph-0-14" x="148.884" y="118.463"/>
<use xlink:href="#glyph-0-7" x="152.567556" y="118.463"/>
<use xlink:href="#glyph-0-13" x="156.251111" y="118.463"/>
<use xlink:href="#glyph-0-4" x="157.721883" y="118.463"/>
<use xlink:href="#glyph-0-9" x="159.563661" y="118.463"/>
</g>
<g fill="rgb(0%, 0%, 0%)" fill-opacity="1">
<use xlink:href="#glyph-0-4" x="165.088995" y="118.463"/>
<use xlink:href="#glyph-0-12" x="166.930772" y="118.463"/>
<use xlink:href="#glyph-0-21" x="170.614328" y="118.463"/>
</g>
<g fill="rgb(0%, 0%, 0%)" fill-opacity="1">
<use xlink:href="#glyph-0-7" x="173.794376" y="118.463"/>
<use xlink:href="#glyph-0-5" x="177.477932" y="118.463"/>
</g>
<g fill="rgb(0%, 0%, 0%)" fill-opacity="1">
<use xlink:href="#glyph-0-20" x="183.003265" y="118.463"/>
<use xlink:href="#glyph-0-7" x="186.686821" y="118.463"/>
<use xlink:href="#glyph-0-8" x="190.370376" y="118.463"/>
</g>
<g fill="rgb(0%, 0%, 0%)" fill-opacity="1">
<use xlink:href="#glyph-0-19" x="194.418312" y="118.463"/>
<use xlink:href="#glyph-0-22" x="196.26009" y="118.463"/>
<use xlink:href="#glyph-0-4" x="199.943646" y="118.463"/>
<use xlink:href="#glyph-0-22" x="201.785423" y="118.463"/>
<use xlink:href="#glyph-0-8" x="205.468979" y="118.463"/>
<use xlink:href="#glyph-0-7" x="207.675137" y="118.463"/>
</g>
<path fill="none" stroke-width="0.79701" stroke-linecap="butt" stroke-linejoin="miter" stroke="rgb(43.920898%, 47.059631%, 50.193787%)" stroke-opacity="1" stroke-dasharray="2.98883 1.99255" stroke-miterlimit="10" d="M -31.580375 -41.104719 L 203.279 -41.104719 " transform="matrix(1, 0, 0, -1, 33.971, 36.407)"/>
</svg>
